<svg width="130" height="130" viewBox="0 0 130 130" fill="none" xmlns="http://www.w3.org/2000/svg">
<path d="M58.2651 0.72128C57.7685 0.841162 55.3283 1.26931 52.8433 1.67207C6.17085 9.24234 -15.9045 66.1727 12.9899 104.449C21.9882 116.369 42.6521 129.866 43.6756 124.492C43.8037 123.82 42.5736 122.971 39.5205 121.623C26.9949 116.091 15.6604 105.192 9.47616 92.7333C-12.9849 47.4864 25.4435 -3.71612 75.625 4.5953C83.1634 5.84431 84.4726 3.24116 77.0848 1.69215C73.7222 0.987029 60.0793 0.283091 58.2651 0.72128ZM58.5663 14.0636C49.7417 15.364 38.386 19.8823 38.386 22.0933C38.386 23.8089 39.6604 23.676 44.3181 21.475C69.8305 9.42128 100.891 22.6101 110.133 49.4211C125.493 93.9859 74.7834 131.71 36.2777 104.362C14.8809 89.1658 9.94683 58.9821 25.3071 37.2481C29.3831 31.4807 27.2382 29.0423 23.076 34.7122C-2.56872 69.6481 24.2057 118.994 67.4706 116.531C111.145 114.045 132.027 61.7105 101.973 30.0628C90.9551 18.4608 73.1807 11.9093 58.5669 14.0624L58.5663 14.0636ZM111.076 21.9315C110.18 22.8274 110.865 24.4307 113.733 28.1565C134.993 55.7766 128.032 97.0614 98.8413 116.485C85.688 125.237 74.1392 127.663 52.5427 126.21C50.5088 126.073 50.1327 126.229 50.1327 127.21C50.1327 131.662 75.9823 130.455 88.799 125.403C126.382 110.592 141.2 62.7794 118.546 29.4203C114.247 23.0908 112.086 20.9223 111.076 21.9315ZM47.063 44.4841C45.9947 45.664 45.9031 47.0477 45.7396 64.4795C45.4709 93.1372 42.6185 92.2709 77.2212 74.0412C94.085 65.1563 94.1795 65.4351 69.9929 52.7477C51.0828 42.8282 49.1831 42.1431 47.063 44.4841ZM67.9608 55.326C86.334 64.9225 86.4297 64.9821 85.1447 66.0486C83.7037 67.2451 50.9411 84.1809 50.0689 84.1809C49.3685 84.1809 49.2291 81.0315 49.2291 65.2053C49.2291 51.8949 49.4258 46.2292 49.887 46.2292C50.2484 46.2292 58.3815 50.3229 67.9608 55.326Z" fill="white"/>
</svg>
